<svg xmlns="http://www.w3.org/2000/svg" width="512" height="512" viewBox="0 0 512 512">
  <rect width="512" height="512" rx="112" fill="#2563eb"/>
  <g transform="translate(256 256) scale(13) translate(-12 -12)" fill="none" stroke="#ffffff" stroke-width="1.3" stroke-linecap="round" stroke-linejoin="round">
    <path d="M3.2 15.2c0-.9.7-1.7 1.6-1.8l1.9-.3 2.1-3c.4-.6 1.1-.9 1.8-.9h4.8c.7 0 1.4.3 1.8.9l2.1 3 1.9.3c.9.1 1.6.9 1.6 1.8v2.4h-2.3"/>
    <path d="M5.5 17.6H3.2v-2.4"/>
    <path d="M9 11.2h6"/>
    <circle cx="7.4" cy="17.6" r="1.7"/>
    <circle cx="16.6" cy="17.6" r="1.7"/>
    <path d="M9.1 17.6h5.8"/>
  </g>
</svg>
